<?xml version="1.0" encoding="UTF-8"?>
<svg enable-background="new 0 0 512 512" version="1.1" viewBox="0 0 512 512" xml:space="preserve" xmlns="http://www.w3.org/2000/svg">
	<g fill="#b3ee28">		
		<path d="m437.02 74.981c-48.352-48.353-112.64-74.981-181.02-74.981s-132.67 26.628-181.02 74.981c-48.354 48.352-74.982 112.64-74.982 181.02s26.628 132.67 74.982 181.02c48.351 48.353 112.64 74.981 181.02 74.981s132.67-26.628 181.02-74.981 74.981-112.64 74.981-181.02-26.628-132.67-74.981-181.02zm-181.02-58.813c53.148 0 102.3 17.389 142.1 46.759l-142.1 107.48-142.1-107.48c39.799-29.37 88.955-46.759 142.1-46.759zm-191.33 384.28c-30.428-40.205-48.506-90.25-48.506-144.44 0-49.856 15.297-96.202 41.436-134.61l7.069 5.547v273.5zm285.4-217.75c-3.815 2.993-4.154 8.648-0.725 12.077 2.892 2.892 7.489 3.169 10.707 0.643l71.102-55.787v280.01c-43.8 46.854-106.11 76.193-175.16 76.193s-131.36-29.339-175.16-76.193v-280.01l170.17 133.51c1.465 1.149 3.227 1.725 4.991 1.725 1.763 0 3.526-0.575 4.991-1.725l67.859-53.242c3.815-2.993 4.155-8.648 0.727-12.077-2.892-2.892-7.489-3.169-10.707-0.643l-62.87 49.327-188.85-148.17c10.016-12.781 21.306-24.513 33.664-35.027l150.31 113.69c2.884 2.182 6.869 2.182 9.754 0l150.31-113.69c12.358 10.514 23.648 22.247 33.664 35.027l-94.778 74.362zm97.252-55.752l7.069-5.547c26.139 38.404 41.436 84.75 41.436 134.61 0 54.193-18.077 104.24-48.505 144.44v-273.5z"/>
	</g>
</svg>

