<?xml version="1.0" encoding="UTF-8"?>
<svg id="social" enable-background="new 0 0 512 512" version="1.1" viewBox="0 0 512 512"  xmlns="http://www.w3.org/2000/svg">
	<g fill="#b3ee28">	
		<path d="M437.019,74.981C388.667,26.628,324.379,0,256,0S123.333,26.628,74.981,74.981C26.628,123.333,0,187.621,0,256    s26.628,132.667,74.981,181.019C123.333,485.372,187.621,512,256,512s132.667-26.628,181.019-74.981S512,324.379,512,256    S485.372,123.333,437.019,74.981z M256,495.832C123.756,495.832,16.168,388.244,16.168,256S123.756,16.168,256,16.168    S495.832,123.756,495.832,256S388.244,495.832,256,495.832z"/>
		<path d="m347.84 97.011h-183.69c-37.024 0-67.144 30.121-67.144 67.144v183.69c0 37.022 30.121 67.143 67.144 67.143h183.69c37.022 0 67.143-30.121 67.143-67.144v-183.69c-1e-3 -37.024-30.121-67.144-67.145-67.144zm50.976 250.83c0 28.108-22.868 50.976-50.976 50.976h-183.69c-28.108 0-50.976-22.868-50.976-50.976v-183.69c0-28.108 22.868-50.976 50.976-50.976h183.69c28.107 0 50.975 22.868 50.975 50.976v183.69z"/>
		<path d="m339.4 251.22c-2.391-42.533-37.002-76.75-79.558-78.669-49.108-2.214-89.535 38.232-87.292 87.346 1.945 42.56 36.19 77.154 78.728 79.51 17.951 0.995 34.762-3.727 48.803-12.494 4.374-2.731 5.087-8.814 1.441-12.459l-0.115-0.115c-2.657-2.658-6.778-3.059-9.971-1.075-10.491 6.519-22.892 10.241-36.158 10.102-37.455-0.394-67.676-31.844-66.621-69.286 1.061-37.681 33.215-67.721 71.657-65.312 33.126 2.076 60.09 28.49 62.819 61.569 1.111 13.475-1.787 26.206-7.61 37.157-1.667 3.136-1.153 6.982 1.358 9.493l0.124 0.124c3.773 3.773 10.154 2.886 12.675-1.816 6.982-13.026 10.619-28.098 9.72-44.075z"/>
		<circle cx="342.23" cy="158.99" r="21.558"/>
	</g>
</svg>

