<svg xmlns="http://www.w3.org/2000/svg" version="1.1" enable-background="new 0 0 512 512" viewBox="0 0 515.66797 512.60156">
  <g transform="translate(1.3848 .30078)" fill="#b3ee28">
    <path style="color-rendering:auto;text-decoration-color:#000000;color:#000000;font-variant-numeric:normal;shape-rendering:auto;font-variant-ligatures:normal;text-decoration-line:none;font-variant-position:normal;mix-blend-mode:normal;solid-color:#000000;font-feature-settings:normal;shape-padding:0;font-variant-alternates:normal;text-indent:0;dominant-baseline:auto;font-variant-caps:normal;image-rendering:auto;white-space:normal;text-decoration-style:solid;text-orientation:mixed;isolation:auto;enable-background:accumulate;text-transform:none" d="m256.45-0.30078c-142.26 0-257.83 114.83-257.83 256.3-0.0048 141.47 115.57 256.3 257.83 256.3s257.83-114.83 257.83-256.3-115.57-256.3-257.83-256.3zm-10.35 18.967c-2.4049 1.0247-4.7698 2.1433-7.082 3.3633-2.7955 1.4743-5.5141 3.0899-8.1484 4.8359a9.6823 9.6823 0 0 0 -0.002 0c-2.6345 1.7467-5.18 3.6241-7.627 5.625-2.4466 2.0003-4.7906 4.1209-7.0254 6.3555l-150.86 150.86c-1.5819 1.5824-3.1082 3.2218-4.5742 4.9121-2.0719 2.3878-4.0206 4.8743-5.8438 7.457-1.8226 2.5819-3.5165 5.2549-5.0723 8.0058a9.6823 9.6823 0 0 0 0 0.002c-1.5559 2.7522-2.9727 5.5808-4.2461 8.4746-1.273 2.8931-2.403 5.8459-3.3809 8.8516h0.0039c-0.9781 3.0056-1.8092 6.0602-2.4824 9.1484l0.0039-0.002c-0.67398 3.0884-1.1963 6.2074-1.5586 9.3477a9.6823 9.6823 0 0 0 0 0.002c-0.36119 3.1398-0.5634 6.2969-0.60938 9.457-0.04619 3.1599 0.06454 6.3219 0.33398 9.4707a9.6823 9.6823 0 0 0 0 0.002c0.27029 3.1498 0.69978 6.2836 1.2832 9.3906 0.58274 3.1061 1.3191 6.1805 2.209 9.2129 0.88988 3.033 1.9309 6.0202 3.1191 8.9492 1.1876 2.9288 2.5201 5.7981 3.9941 8.5938a9.6823 9.6823 0 0 0 0.0039 0.002c1.4748 2.7947 3.0896 5.5129 4.8359 8.1465h-0.0039c1.7467 2.6345 3.6241 5.18 5.625 7.627 2.0009 2.4474 4.1241 4.792 6.3594 7.0273l149.37 149.36c1.5824 1.5819 3.2218 3.1062 4.9121 4.5723 2.3872 2.0711 4.875 4.0232 7.457 5.8457 2.5826 1.8233 5.2541 3.5139 8.0059 5.0703a9.6823 9.6823 0 0 0 0.002 0.002c2.7516 1.5552 5.5796 2.9714 8.4726 4.2441 0.29947 0.13181 0.60152 0.25607 0.90235 0.38477-126.62-6.18-227.13-109.97-227.13-237.27-0.002-127.84 101.37-231.96 228.75-237.33zm38.254 11.783a9.6823 9.6823 0 0 0 0.002 0c2.5155 0.03653 5.0261 0.19882 7.5254 0.48633 2.4984 0.28779 4.9804 0.70061 7.4375 1.2363 2.4576 0.53569 4.8875 1.1943 7.2793 1.9727a9.6823 9.6823 0 0 0 0.002 0c2.3918 0.77812 4.7408 1.6725 7.043 2.6855 2.3028 1.0133 4.554 2.1427 6.7441 3.3809 2.1891 1.238 4.3145 2.5848 6.3691 4.0352 2.0553 1.4508 4.0354 3.0036 5.9356 4.6523a9.6823 9.6823 0 0 0 0.002 0.002c1.3451 1.1666 2.647 2.3798 3.9062 3.6387l99.502 99.502c1.2886 1.5731 2.5334 3.1784 3.7148 4.8242 1.5704 2.2365 3.0394 4.5301 4.3984 6.875a9.6823 9.6823 0 0 0 0.002 0.006c1.3681 2.3581 2.6249 4.763 3.7656 7.2051 1.1388 2.4409 2.1597 4.9142 3.0606 7.4121a9.6823 9.6823 0 0 0 0 0.002c0.90166 2.4991 1.6822 5.0178 2.3379 7.5469 0.65536 2.5288 1.1871 5.0641 1.5918 7.5957a9.6823 9.6823 0 0 0 0.006 0.0254c0.40222 2.5223 0.68032 5.0406 0.83203 7.5391a9.6823 9.6823 0 0 0 0 0.006c0.15266 2.5076 0.17846 4.9953 0.0801 7.4531-0.0989 2.4562-0.3223 4.8776-0.66796 7.2598a9.6823 9.6823 0 0 0 0 0.002c-0.34571 2.3839-0.81402 4.7227-1.4004 7.0098a9.6823 9.6823 0 0 0 -0.002 0.0156c-0.58593 2.2832-1.288 4.5116-2.1055 6.6777a9.6823 9.6823 0 0 0 -0.002 0.002c-0.81771 2.1693-1.7491 4.2734-2.7891 6.3066a9.6823 9.6823 0 0 0 -0.008 0.0156c-1.0386 2.0257-2.1852 3.9796-3.4336 5.8535a9.6823 9.6823 0 0 0 0 0.002c-1.2521 1.8805-2.605 3.6799-4.0566 5.3926a9.6823 9.6823 0 0 0 -0.002 0c-1.0278 1.2131-2.106 2.3829-3.2285 3.5059l-94.771 94.773-6.2617 6.2598-43.059-43.061 6.2598-6.2598 95.143-95.141a9.6823 9.6823 0 0 0 0 -13.695l-107.18-107.2a9.6823 9.6823 0 0 0 -13.691 0l-108.25 108.25-53.6 53.6a9.6823 9.6823 0 0 0 0 13.689l107.2 107.2 56.75 56.754a9.6823 9.6823 0 0 0 13.693 0l46.752-46.756 39.213 39.217-41.258 41.258c-1.7783 1.7782-3.6429 3.4648-5.5898 5.0566-1.9472 1.5923-3.9738 3.0886-6.0703 4.4785v-0.002c-2.0968 1.3898-4.2612 2.6742-6.4863 3.8476a9.6823 9.6823 0 0 0 -0.002 0c-2.2247 1.1738-4.5071 2.2358-6.8379 3.1816-2.33 0.94516-4.7064 1.7765-7.1191 2.4844-2.4138 0.70832-4.8616 1.294-7.334 1.7578-2.472 0.46364-4.9667 0.80104-7.4726 1.0156-2.506 0.21437-5.0203 0.30442-7.5352 0.26757-2.515-0.0371-5.0267-0.19831-7.5254-0.48632a9.6823 9.6823 0 0 0 -0.002 0c-2.498-0.28707-4.9806-0.70138-7.4375-1.2363h-0.002c-2.4567-0.53558-4.8844-1.1946-7.2754-1.9727-2.3924-0.77863-4.7461-1.6758-7.0488-2.6894-2.3015-1.0125-4.5532-2.1398-6.7422-3.377h-0.002c-2.189-1.2382-4.3107-2.5846-6.3652-4.0352a9.6823 9.6823 0 0 0 -0.002 0c-2.0547-1.4503-4.0378-3.0022-5.9375-4.6504a9.6823 9.6823 0 0 0 0 -0.002c-1.3451-1.1666-2.647-2.3798-3.9062-3.6387l-149.37-149.38c-1.7788-1.7788-3.4663-3.6462-5.0586-5.5938a9.6823 9.6823 0 0 0 -0.002 0c-1.5923-1.9472-3.0847-3.9719-4.4746-6.0684-1.389-2.0947-2.6726-4.2596-3.8457-6.4824l-0.0039-0.002c-1.1726-2.2243-2.2329-4.5077-3.1777-6.8379-0.94555-2.3308-1.7743-4.7076-2.4824-7.1211-0.70832-2.4138-1.296-4.8616-1.7598-7.334a9.6823 9.6823 0 0 0 0 -0.002c-0.46411-2.4716-0.80443-4.9632-1.0195-7.4688v-0.002c-0.21425-2.5048-0.30432-5.0195-0.26758-7.5332 0.03651-2.5146 0.19901-5.027 0.48633-7.5254v-0.002c0.28827-2.4981 0.70409-4.9807 1.2402-7.4375a9.6823 9.6823 0 0 0 0 -0.002c0.53569-2.4576 1.1924-4.8856 1.9707-7.2774a9.6823 9.6823 0 0 0 0 -0.002c0.77813-2.3918 1.6745-4.7408 2.6875-7.043 1.0133-2.3028 2.1407-4.554 3.3789-6.7441 1.238-2.1891 2.5868-4.3145 4.0371-6.3691 1.4508-2.0553 3.0016-4.0354 4.6504-5.9356a9.6823 9.6823 0 0 0 0.002 -0.002c1.1666-1.3451 2.3818-2.6471 3.6406-3.9062l150.86-150.87c1.7784-1.7782 3.6429-3.4668 5.5898-5.0586 1.9472-1.5923 3.9738-3.0866 6.0703-4.4766v0.002c2.0968-1.3898 4.2612-2.6742 6.4863-3.8477a9.6823 9.6823 0 0 0 0.002 0c2.224-1.1734 4.504-2.236 6.834-3.1816 2.3308-0.94555 4.7076-1.7743 7.1211-2.4824 2.4138-0.70833 4.8635-1.296 7.3359-1.7598 2.4711-0.46349 4.9638-0.80102 7.4688-1.0156 2.5068-0.21453 5.0234-0.30445 7.5391-0.26758zm63.293 5.8574c86.87 35.587 147.91 120.49 147.91 219.69 0.00001 100.22-62.301 185.86-150.59 220.78 1.313-1.1744 2.5974-2.3807 3.8438-3.627l48.105-48.104a9.6823 9.6823 0 0 0 0 -13.691l-46.061-46.061 6.2617-6.2598 94.773-94.775a9.6823 9.6823 0 0 0 0.002 -0.002c1.4974-1.4981 2.9346-3.0569 4.3047-4.6738l0.002-0.002c1.9347-2.2829 3.7375-4.6785 5.4004-7.1758v-0.002c1.6639-2.4977 3.184-5.0938 4.5586-7.7773a9.6823 9.6823 0 0 0 0.006 -0.008l0.0117-0.0234c1.3679-2.6766 2.5889-5.4385 3.6562-8.2695 1.0721-2.8408 1.9897-5.7478 2.75-8.7129a9.6823 9.6823 0 0 0 0 -0.006 9.6823 9.6823 0 0 0 0.19922 -0.98828c0.6464-2.6513 1.2125-5.3292 1.6074-8.0527h-0.002c0.4435-3.0565 0.72806-6.1465 0.85352-9.2637a9.6823 9.6823 0 0 0 0 -0.002c0.12482-3.118 0.0939-6.257-0.0977-9.4043a9.6823 9.6823 0 0 0 0 -0.002c-0.19111-3.1471-0.54216-6.2976-1.0449-9.4434a9.6823 9.6823 0 0 0 -0.17578 -0.83789 9.6823 9.6823 0 0 0 -0.0254 -0.10938c-0.48016-2.8279-1.0415-5.6495-1.7676-8.4512a9.6823 9.6823 0 0 0 0 -0.002c-0.8076-3.1151-1.7651-6.2052-2.8672-9.2598-1.1016-3.0544-2.3467-6.0696-3.7305-9.0352a9.6823 9.6823 0 0 0 -0.002 -0.002c-1.3848-2.9647-2.9042-5.8761-4.5566-8.7246l-0.002-0.002c-1.6507-2.8479-3.4302-5.6301-5.332-8.3359a9.6823 9.6823 0 0 0 -0.0625 -0.0801l0.008 0.006c-1.5133-2.1102-3.1031-4.1704-4.7598-6.1777a9.6823 9.6823 0 0 0 -0.61914 -0.68359l-99.908-99.914c-0.86488-0.86462-1.7489-1.7086-2.6465-2.5391zm-66.186 70.486 93.506 93.508-88.295 88.297-13.107 13.104a9.6823 9.6823 0 0 0 0 13.695l49.906 49.904-39.908 39.908-49.904-49.906-100.36-100.35 46.756-46.756z" fill-rule="evenodd"/>
  </g>
</svg>
